<svg width="1200" height="1000" viewBox="0 0 1200 1000" fill="none" xmlns="http://www.w3.org/2000/svg"><g clip-path="url(#prefix__clip0_1599_15373)"><path fill="#000" d="M0 0h1200v1000H0z"/><path transform="matrix(.86603 .5 -.86603 .5 1283.5 680.139)" fill="url(#prefix__paint0_linear_1599_15373)" d="M0 0h1201.51v1201.51H0z"/><path transform="matrix(.86603 .5 -.86603 .5 1283.5 680.139)" fill="url(#prefix__paint1_diamond_1599_15373)" fill-opacity=".3" d="M0 0h1201.51v1201.51H0z"/><path transform="matrix(.86603 .5 -.86603 .5 -283.812 246.469)" fill="url(#prefix__paint2_linear_1599_15373)" d="M0 0h742.042v742.042H0z"/><path transform="matrix(.86603 .5 -.86603 .5 -283.812 246.469)" fill="url(#prefix__paint3_diamond_1599_15373)" d="M0 0h742.042v742.042H0z"/><path d="M-81.665 796.92l250.573-144.668M180.315 658.61l-22.821-13.175" stroke="#fff" stroke-width="1.384"/><path transform="matrix(.86603 .5 -.86603 .5 496.885 -190.545)" fill="url(#prefix__paint4_linear_1599_15373)" d="M0 0h895.421v895.421H0z"/><path transform="matrix(.86603 .5 -.86603 .5 496.885 -190.545)" fill="url(#prefix__paint5_diamond_1599_15373)" fill-opacity=".8" d="M0 0h895.421v895.421H0z"/><path d="M641.591 788.602l144.356-83.344v404.032l-144.356 83.34V788.602z" fill="url(#prefix__paint6_linear_1599_15373)" fill-opacity=".7"/><path d="M641.592 788.601l-144.356-83.344v531.103l144.356 83.35V788.601z" fill="url(#prefix__paint7_linear_1599_15373)" fill-opacity=".65"/><path d="M496.828 537.938l144.761-83.577v167.155l-144.761 83.578V537.938z" fill="#5A00CC" fill-opacity=".38"/><path d="M786.345 537.938l-144.76-83.577v167.155l144.76 83.578V537.938z" fill="#56009A" fill-opacity=".38"/><path transform="matrix(-.86603 -.5 .86603 -.5 641.124 621.744)" fill="url(#prefix__paint8_linear_1599_15373)" d="M0 0h167.155v167.155H0z"/><path transform="matrix(-.86603 -.5 .86603 -.5 641.124 788.454)" fill="url(#prefix__paint9_linear_1599_15373)" fill-opacity=".9" d="M0 0h167.155v167.155H0z"/><path d="M641.642 621.516l-144.76-83.578v167.155l144.76 83.578V621.516z" fill="url(#prefix__paint10_linear_1599_15373)" fill-opacity=".9"/><path d="M641.585 621.475l144.76-83.578v167.155l-144.76 83.578V621.475z" fill="url(#prefix__paint11_linear_1599_15373)" fill-opacity=".9"/><g opacity=".75"><path d="M1091.14 358.812l119.18-68.808v333.561l-119.18 68.808V358.812z" fill="url(#prefix__paint12_linear_1599_15373)" fill-opacity=".6"/><path d="M1091.15 358.812l-119.183-68.808v438.473l119.183 68.808V358.812z" fill="url(#prefix__paint13_linear_1599_15373)" fill-opacity=".6"/><path d="M971.771 152.36l119.179-68.808v137.615l-119.179 68.808V152.36z" fill="url(#prefix__paint14_linear_1599_15373)" fill-opacity=".7"/><path d="M1210.43 152.36l-119.17-68.808v137.615l119.17 68.808V152.36z" fill="url(#prefix__paint15_linear_1599_15373)" fill-opacity=".5"/><path transform="matrix(-.86603 -.5 .86603 -.5 1091.15 221.167)" fill="url(#prefix__paint16_radial_1599_15373)" fill-opacity=".8" d="M0 0h137.615v137.615H0z"/><path transform="matrix(-.86603 -.5 .86603 -.5 1091.1 358.87)" fill="url(#prefix__paint17_linear_1599_15373)" fill-opacity=".7" d="M0 0h137.788v137.788H0z"/><path d="M1090.95 221.167L971.771 152.36v137.615l119.179 68.808V221.167z" fill="url(#prefix__paint18_linear_1599_15373)" fill-opacity=".6"/><path d="M1091.26 221.167l119.18-68.807v137.615l-119.18 68.808V221.167z" fill="url(#prefix__paint19_linear_1599_15373)" fill-opacity=".6"/></g><rect x="1.199" width="116.165" height="116.165" rx="6.229" transform="scale(1.22477 .70706) rotate(-45 983.095 -216)" stroke="#fff" stroke-width="1.384"/><path transform="scale(1.22477 .70706) rotate(-45 1050.344 -378.353)" stroke="#fff" stroke-width="1.384" d="M1.199 0h9.648v9.648H1.199z"/><path d="M917.744 611.882l272.836-157.521M917.743 625.533l272.837-157.52M917.743 639.185l272.837-157.521M917.743 652.836l272.837-157.521M917.743 666.487l272.837-157.521M917.743 680.139l272.837-157.521M1203 461.285l-24.85-14.345" stroke="#000" stroke-width="1.507"/><g opacity=".6"><path d="M207.42 418.25l71.15-41.078v199.137l-71.15 41.078V418.25z" fill="url(#prefix__paint20_linear_1599_15373)" fill-opacity=".7"/><path d="M207.42 418.25l-71.15-41.078v261.77l71.15 41.078V418.25z" fill="url(#prefix__paint21_linear_1599_15373)" fill-opacity=".65"/><path d="M136.07 294.703l71.349-41.193v82.387l-71.349 41.194v-82.388z" fill="#5A00CC" fill-opacity=".38"/><path d="M278.766 294.703l-71.35-41.193v82.387l71.35 41.194v-82.388z" fill="#56009A" fill-opacity=".38"/><path transform="matrix(-.86603 -.5 .86603 -.5 207.19 336.01)" fill="url(#prefix__paint22_linear_1599_15373)" d="M0 0h82.387v82.387H0z"/><path transform="matrix(-.86603 -.5 .86603 -.5 207.19 418.177)" fill="url(#prefix__paint23_linear_1599_15373)" fill-opacity=".9" d="M0 0h82.387v82.387H0z"/><path d="M207.445 335.897l-71.349-41.193v82.387l71.349 41.193v-82.387z" fill="url(#prefix__paint24_linear_1599_15373)" fill-opacity=".9"/><path d="M207.417 335.877l71.349-41.193v82.387l-71.349 41.193v-82.387z" fill="url(#prefix__paint25_linear_1599_15373)" fill-opacity=".9"/></g></g><defs><linearGradient id="prefix__paint0_linear_1599_15373" x1="1201.37" y1="1202.08" x2="450.894" y2="451.603" gradientUnits="userSpaceOnUse"><stop stop-color="#1C1C1C"/><stop offset="1" stop-opacity="0"/></linearGradient><linearGradient id="prefix__paint2_linear_1599_15373" x1="741.956" y1="742.394" x2="278.468" y2="278.906" gradientUnits="userSpaceOnUse"><stop stop-color="#1C1C1C"/><stop offset="1" stop-opacity="0"/></linearGradient><linearGradient id="prefix__paint4_linear_1599_15373" x1="895.318" y1="895.846" x2="336.027" y2="336.556" gradientUnits="userSpaceOnUse"><stop stop-color="#1C1C1C"/><stop offset="1" stop-opacity="0"/></linearGradient><linearGradient id="prefix__paint6_linear_1599_15373" x1="701.266" y1="623.276" x2="728.288" y2="1002.96" gradientUnits="userSpaceOnUse"><stop stop-color="#532A7D"/><stop offset="1" stop-color="#33197C" stop-opacity="0"/></linearGradient><linearGradient id="prefix__paint7_linear_1599_15373" x1="625.238" y1="633.352" x2="517.609" y2="1024.02" gradientUnits="userSpaceOnUse"><stop stop-color="#9C65D5"/><stop offset="1" stop-color="#522AC2" stop-opacity="0"/></linearGradient><linearGradient id="prefix__paint8_linear_1599_15373" x1="174.152" y1="36.47" x2="-10.986" y2="144.979" gradientUnits="userSpaceOnUse"><stop stop-color="#E9F3FF" stop-opacity=".92"/><stop offset=".5" stop-color="#A35BFF" stop-opacity=".88"/><stop offset=".987" stop-color="#3A07CD" stop-opacity=".8"/></linearGradient><linearGradient id="prefix__paint9_linear_1599_15373" x1="186.991" y1="-4.889" x2="-22.965" y2="162.335" gradientUnits="userSpaceOnUse"><stop stop-color="#D1DBFF"/><stop offset=".479" stop-color="#A975FF" stop-opacity=".45"/><stop offset=".987" stop-color="#552ACE" stop-opacity=".65"/></linearGradient><linearGradient id="prefix__paint10_linear_1599_15373" x1="496.882" y1="531.343" x2="634.237" y2="788.671" gradientUnits="userSpaceOnUse"><stop stop-color="#A5B3FF" stop-opacity=".99"/><stop offset=".596" stop-color="#7622CA" stop-opacity=".998"/><stop offset="1" stop-color="#2E2C9F"/></linearGradient><linearGradient id="prefix__paint11_linear_1599_15373" x1="791.288" y1="537.897" x2="641.585" y2="793.695" gradientUnits="userSpaceOnUse"><stop stop-color="#863BE7" stop-opacity=".76"/><stop offset="1" stop-color="#0F1B5C" stop-opacity=".81"/></linearGradient><linearGradient id="prefix__paint12_linear_1599_15373" x1="1140.41" y1="222.321" x2="1162.72" y2="535.781" gradientUnits="userSpaceOnUse"><stop stop-color="#020202"/><stop offset="1" stop-opacity="0"/></linearGradient><linearGradient id="prefix__paint13_linear_1599_15373" x1="1077.64" y1="230.64" x2="988.786" y2="553.174" gradientUnits="userSpaceOnUse"><stop stop-color="#4B4B4B"/><stop offset="1" stop-color="#252525" stop-opacity="0"/></linearGradient><linearGradient id="prefix__paint14_linear_1599_15373" x1="1079.29" y1="104.098" x2="958.333" y2="249.267" gradientUnits="userSpaceOnUse"><stop offset=".151" stop-color="#141414"/><stop offset="1" stop-color="#282828"/></linearGradient><linearGradient id="prefix__paint15_linear_1599_15373" x1="1102.91" y1="104.098" x2="1223.87" y2="249.267" gradientUnits="userSpaceOnUse"><stop stop-color="#0A0A0A"/><stop offset=".948"/></linearGradient><linearGradient id="prefix__paint17_linear_1599_15373" x1="124.312" y1="13.834" x2="3.604" y2="112.644" gradientUnits="userSpaceOnUse"><stop stop-color="#4B4B4B"/><stop offset="1" stop-color="#252525"/></linearGradient><linearGradient id="prefix__paint18_linear_1599_15373" x1="983.428" y1="172.906" x2="1104.39" y2="318.075" gradientUnits="userSpaceOnUse"><stop stop-color="#4B4B4B"/><stop offset="1" stop-color="#252525"/></linearGradient><linearGradient id="prefix__paint19_linear_1599_15373" x1="1198.78" y1="172.906" x2="1077.82" y2="318.075" gradientUnits="userSpaceOnUse"><stop stop-color="#090909"/><stop offset="1"/></linearGradient><linearGradient id="prefix__paint20_linear_1599_15373" x1="236.832" y1="336.765" x2="250.151" y2="523.901" gradientUnits="userSpaceOnUse"><stop stop-color="#532A7D"/><stop offset="1" stop-color="#33197C" stop-opacity="0"/></linearGradient><linearGradient id="prefix__paint21_linear_1599_15373" x1="199.36" y1="341.731" x2="146.312" y2="534.285" gradientUnits="userSpaceOnUse"><stop stop-color="#9C65D5"/><stop offset="1" stop-color="#522AC2" stop-opacity="0"/></linearGradient><linearGradient id="prefix__paint22_linear_1599_15373" x1="85.836" y1="17.975" x2="-5.415" y2="71.457" gradientUnits="userSpaceOnUse"><stop stop-color="#E9F3FF" stop-opacity=".92"/><stop offset=".5" stop-color="#A35BFF" stop-opacity=".88"/><stop offset=".987" stop-color="#3A07CD" stop-opacity=".8"/></linearGradient><linearGradient id="prefix__paint23_linear_1599_15373" x1="92.164" y1="-2.409" x2="-11.319" y2="80.012" gradientUnits="userSpaceOnUse"><stop stop-color="#D1DBFF"/><stop offset=".479" stop-color="#A975FF" stop-opacity=".45"/><stop offset=".987" stop-color="#552ACE" stop-opacity=".65"/></linearGradient><linearGradient id="prefix__paint24_linear_1599_15373" x1="136.096" y1="291.453" x2="203.795" y2="418.284" gradientUnits="userSpaceOnUse"><stop stop-color="#A5B3FF" stop-opacity=".99"/><stop offset=".596" stop-color="#7622CA" stop-opacity=".998"/><stop offset="1" stop-color="#2E2C9F"/></linearGradient><linearGradient id="prefix__paint25_linear_1599_15373" x1="281.202" y1="294.684" x2="207.417" y2="420.761" gradientUnits="userSpaceOnUse"><stop stop-color="#863BE7" stop-opacity=".76"/><stop offset="1" stop-color="#0F1B5C" stop-opacity=".81"/></linearGradient><radialGradient id="prefix__paint1_diamond_1599_15373" cx="0" cy="0" r="1" gradientUnits="userSpaceOnUse" gradientTransform="rotate(11.257 -3033.948 -450.886) scale(1446.48 3040.31)"><stop stop-color="#07ABF1" stop-opacity=".72"/><stop offset=".419" stop-color="#5E14D8" stop-opacity=".69"/><stop offset="1" stop-color="#000637" stop-opacity="0"/></radialGradient><radialGradient id="prefix__paint3_diamond_1599_15373" cx="0" cy="0" r="1" gradientUnits="userSpaceOnUse" gradientTransform="rotate(-128.999 561.18 190.226) scale(1202.77 1488.59)"><stop stop-color="#63D0FF"/><stop offset="1" stop-color="#000637" stop-opacity="0"/></radialGradient><radialGradient id="prefix__paint5_diamond_1599_15373" cx="0" cy="0" r="1" gradientUnits="userSpaceOnUse" gradientTransform="rotate(-135 694.43 287.861) scale(1389.41 1805.92)"><stop stop-color="#07ABF1" stop-opacity=".72"/><stop offset=".419" stop-color="#5E14D8" stop-opacity=".69"/><stop offset="1" stop-color="#000637" stop-opacity="0"/></radialGradient><radialGradient id="prefix__paint16_radial_1599_15373" cx="0" cy="0" r="1" gradientUnits="userSpaceOnUse" gradientTransform="matrix(-158.72567 158.72567 -272.8718 -272.8718 162.147 -24.175)"><stop stop-color="#7D868C"/><stop offset=".532" stop-color="#3C3C3C"/><stop offset="1" stop-color="#212121"/></radialGradient><clipPath id="prefix__clip0_1599_15373"><path fill="#fff" d="M0 0h1200v1000H0z"/></clipPath></defs></svg>